<?xml version="1.0" encoding="UTF-8"?>
<svg width="16px" height="16px" viewBox="0 0 16 16" version="1.1" xmlns="http://www.w3.org/2000/svg" xmlns:xlink="http://www.w3.org/1999/xlink">
    <title>禁止锁定</title>
    <g id="PC端" stroke="none" stroke-width="1" fill="none" fill-rule="evenodd">
        <g id="图标" transform="translate(-942.000000, -1487.000000)" fill-rule="nonzero">
            <g id="禁止锁定" transform="translate(942.000000, 1487.000000)">
                <path d="M6.76337349,1 C8.86843373,1 10.5737349,2.70698795 10.5737349,4.81036145 L10.5737349,6.68771084 C11.3311618,6.79312592 11.9389748,7.31725889 12.1771492,8.00677138 C10.071694,8.1237633 8.40157,9.86639102 8.4,11.9993681 C8.40087886,13.1948456 8.92556882,14.267633 9.75689629,15.0006374 L2.58698795,15 C1.48891566,15 0.6,14.1110843 0.6,13.013012 L0.6,8.65783133 C0.6,7.6660241 1.33036145,6.8260241 2.31373494,6.68771084 L2.31204819,6.63542169 L2.31204819,4.81204819 C2.31204819,3.80168675 2.71349398,2.83180723 3.4286747,2.11662651 C4.14385542,1.40144578 5.11204819,1 6.12409639,1 L6.76337349,1 Z M6.44289157,8.73710843 C5.83566265,8.73710843 5.31445783,9.16891566 5.20313253,9.7660241 C5.09012048,10.3614458 5.41903614,10.953494 5.98409639,11.1744578 L5.98409639,12.473253 C5.98409639,12.7262651 6.18987952,12.9320482 6.44289157,12.9320482 C6.69590361,12.9320482 6.90168675,12.7262651 6.90168675,12.473253 L6.90168675,11.1744578 C7.46674699,10.953494 7.79566265,10.3614458 7.6826506,9.7660241 C7.56963855,9.16891566 7.05012048,8.73710843 6.44289157,8.73710843 Z M6.44289157,2.68 C5.15590361,2.68 4.11349398,3.72409639 4.11349398,5.01108434 L4.11349398,6.67084337 L8.77228916,6.67084337 L8.77228916,5.00939759 C8.77228916,3.72240964 7.72987952,2.68 6.44289157,2.68 Z" id="形状结合" fill="#666666"></path>
                <path d="M12.4,9 C14.0568542,9 15.4,10.3431458 15.4,12 C15.4,13.6568542 14.0568542,15 12.4,15 C10.7431458,15 9.4,13.6568542 9.4,12 C9.4,10.3431458 10.7431458,9 12.4,9 Z M10.6,12 C10.6,12.9941125 11.4058875,13.8 12.4,13.8 C12.6900147,13.8 12.96401,13.7314128 13.2066502,13.609574 L10.790426,11.1933498 C10.6685872,11.43599 10.6,11.7099853 10.6,12 Z M12.4,10.2 C12.134251,10.2 11.8819529,10.2575899 11.654905,10.3609704 L14.0394861,12.7440917 C14.1425796,12.5173039 14.2,12.2653576 14.2,12 C14.2,11.0058875 13.3941125,10.2 12.4,10.2 Z" id="形状结合" fill="#D14343"></path>
            </g>
        </g>
    </g>
</svg>