<?xml version="1.0" encoding="UTF-8"?>
<svg width="16px" height="16px" viewBox="0 0 16 16" version="1.1" xmlns="http://www.w3.org/2000/svg" xmlns:xlink="http://www.w3.org/1999/xlink">
    <title>已锁定</title>
    <g id="PC端" stroke="none" stroke-width="1" fill="none" fill-rule="evenodd">
        <g id="图标" transform="translate(-811.000000, -1487.000000)" fill="#666666" fill-rule="nonzero">
            <g id="已锁定" transform="translate(811.000000, 1487.000000)">
                <path d="M10.3722892,6.66915663 L10.3722892,5.00939759 C10.3722892,3.72240964 9.32987952,2.68 8.04289157,2.68 C6.75590361,2.68 5.71349398,3.72409639 5.71349398,5.01108434 L5.71349398,6.67084337 L10.3722892,6.67084337 L10.3722892,6.66915663 Z M3.91373494,6.68771084 L3.91204819,6.63542169 L3.91204819,4.81204819 C3.91204819,3.80168675 4.31349398,2.83180723 5.0286747,2.11662651 C5.74385542,1.40144578 6.71204819,1 7.72409639,1 L8.36337349,1 C10.4684337,1 12.1737349,2.70698795 12.1737349,4.81036145 L12.1737349,6.68771084 C13.1554217,6.82433735 13.8857831,7.66433735 13.8857831,8.65614458 L13.8857831,13.013012 C13.8857831,14.1110843 12.9968675,15 11.8987952,15 L4.18698795,15 C3.08891566,15 2.2,14.1110843 2.2,13.013012 L2.2,8.65783133 C2.2,7.6660241 2.93036145,6.8260241 3.91373494,6.68771084 Z M7.58409639,11.1744578 L7.58409639,12.473253 C7.58409639,12.7262651 7.78987952,12.9320482 8.04289157,12.9320482 C8.29590361,12.9320482 8.50168675,12.7262651 8.50168675,12.473253 L8.50168675,11.1744578 C9.06674699,10.953494 9.39566265,10.3614458 9.2826506,9.7660241 C9.16963855,9.16891566 8.65012048,8.73710843 8.04289157,8.73710843 C7.43566265,8.73710843 6.91445783,9.16891566 6.80313253,9.7660241 C6.69012048,10.3614458 7.01903614,10.953494 7.58409639,11.1744578 L7.58409639,11.1744578 Z" id="形状"></path>
            </g>
        </g>
    </g>
</svg>